<?xml version="1.0" encoding="UTF-8" standalone="no"?><svg width="100%" height="100%" viewBox="0 0 707 160" version="1.1" xmlns="http://www.w3.org/2000/svg" xmlns:xlink="http://www.w3.org/1999/xlink" xml:space="preserve" style="fill-rule:evenodd;clip-rule:evenodd;stroke-linejoin:round;stroke-miterlimit:1.41421;"><path d="M211.554,55.166l12.811,0l0,51.246l-12.811,0l0,-51.246Zm14.093,-14.487c0,2.496 -0.559,4.287 -1.676,5.371c-1.117,1.084 -3.088,1.626 -5.913,1.626c-2.825,0 -4.796,-0.542 -5.913,-1.626c-1.117,-1.084 -1.675,-2.875 -1.675,-5.371c0,-2.431 0.558,-4.205 1.675,-5.322c1.117,-1.117 3.088,-1.675 5.913,-1.675c2.825,0 4.796,0.558 5.913,1.675c1.117,1.117 1.676,2.891 1.676,5.322Z" style="fill:#fff;fill-rule:nonzero;" fill="#ffffff"/><path d="M234.812,106.412l0,-34.887c0,-3.219 0.46,-5.979 1.379,-8.278c0.92,-2.3 2.333,-4.156 4.238,-5.568c1.905,-1.413 4.336,-2.448 7.293,-3.105c2.956,-0.657 6.471,-0.985 10.545,-0.985c8.147,0 14.076,1.363 17.788,4.09c3.712,2.726 5.568,7.342 5.568,13.846l0,34.887l-12.811,0l0,-33.31c0,-1.511 -0.099,-2.825 -0.296,-3.942c-0.197,-1.117 -0.641,-2.053 -1.33,-2.809c-0.69,-0.755 -1.741,-1.314 -3.154,-1.675c-1.413,-0.361 -3.334,-0.542 -5.765,-0.542c-2.431,0 -4.353,0.181 -5.765,0.542c-1.413,0.361 -2.481,0.92 -3.203,1.675c-0.723,0.756 -1.183,1.692 -1.38,2.809c-0.197,1.117 -0.296,2.431 -0.296,3.942l0,33.31l-12.811,0Z" style="fill:#fff;fill-rule:nonzero;" fill="#ffffff"/><path d="M320.649,106.412l-7.982,0c-4.139,0 -7.539,-0.296 -10.2,-0.887c-2.661,-0.591 -4.764,-1.626 -6.308,-3.104c-1.543,-1.478 -2.611,-3.466 -3.202,-5.963c-0.592,-2.496 -0.887,-5.617 -0.887,-9.362l0,-43.855l12.811,-2.069l0,13.994l18.429,0l-2.069,10.545l-16.36,0l0,20.695c0,1.971 0.115,3.581 0.345,4.829c0.23,1.249 0.657,2.218 1.281,2.908c0.624,0.689 1.511,1.149 2.661,1.379c1.15,0.23 2.612,0.345 4.386,0.345l9.165,0l-2.07,10.545Z" style="fill:#fff;fill-rule:nonzero;" fill="#ffffff"/><path d="M342.133,85.125c0,2.365 0.132,4.304 0.395,5.815c0.262,1.511 0.804,2.693 1.626,3.547c0.821,0.855 1.954,1.446 3.4,1.774c1.445,0.329 3.35,0.493 5.716,0.493c2.299,0 4.927,0 7.884,0c2.956,0 6.602,-0.066 10.939,-0.197l-1.971,9.855c-1.84,0.066 -3.482,0.115 -4.928,0.148c-1.445,0.033 -2.841,0.049 -4.188,0.049l-8.328,0c-4.664,0 -8.508,-0.525 -11.53,-1.577c-3.022,-1.051 -5.404,-2.562 -7.145,-4.533c-1.741,-1.971 -2.957,-4.385 -3.646,-7.243c-0.69,-2.858 -1.035,-6.127 -1.035,-9.806l0,-5.519c0,-3.942 0.361,-7.424 1.084,-10.446c0.723,-3.023 1.987,-5.569 3.794,-7.638c1.807,-2.07 4.238,-3.63 7.293,-4.681c3.055,-1.051 6.915,-1.577 11.579,-1.577c4.337,0 7.934,0.476 10.792,1.429c2.858,0.953 5.157,2.283 6.898,3.991c1.741,1.708 2.973,3.729 3.696,6.061c0.723,2.332 1.084,4.878 1.084,7.638l0,1.675c0,2.234 -0.131,4.057 -0.394,5.47c-0.263,1.412 -0.706,2.513 -1.331,3.301c-0.624,0.789 -1.429,1.314 -2.414,1.577c-0.986,0.263 -2.201,0.394 -3.647,0.394l-25.623,0Zm10.644,-21.878c-2.234,0 -4.041,0.181 -5.42,0.542c-1.38,0.361 -2.464,1.018 -3.253,1.971c-0.788,0.953 -1.314,2.234 -1.576,3.843c-0.263,1.61 -0.395,3.663 -0.395,6.16l21.189,0l0,-2.267c0,-1.905 -0.165,-3.515 -0.493,-4.829c-0.329,-1.314 -0.887,-2.365 -1.675,-3.153c-0.789,-0.789 -1.873,-1.364 -3.253,-1.725c-1.379,-0.361 -3.087,-0.542 -5.124,-0.542Z" style="fill:#fff;fill-rule:nonzero;" fill="#ffffff"/><path d="M406.881,94.192c2.365,0 4.271,-0.181 5.716,-0.542c1.445,-0.362 2.595,-0.969 3.449,-1.823c0.854,-0.855 1.429,-2.004 1.725,-3.45c0.296,-1.445 0.443,-3.285 0.443,-5.519l0,-4.828c0,-2.891 -0.098,-5.257 -0.295,-7.096c-0.197,-1.84 -0.69,-3.285 -1.478,-4.336c-0.789,-1.052 -1.939,-1.774 -3.45,-2.168c-1.511,-0.395 -3.548,-0.592 -6.11,-0.592c-2.562,0 -4.599,0.197 -6.11,0.592c-1.511,0.394 -2.661,1.116 -3.449,2.168c-0.789,1.051 -1.281,2.496 -1.479,4.336c-0.197,1.839 -0.295,4.205 -0.295,7.096l0,1.971c0,2.89 0.115,5.256 0.345,7.095c0.23,1.84 0.722,3.285 1.478,4.336c0.756,1.052 1.889,1.774 3.4,2.168c1.511,0.395 3.548,0.592 6.11,0.592Zm11.333,6.701c-1.314,1.051 -2.989,1.906 -5.026,2.563c-2.036,0.657 -4.763,0.985 -8.179,0.985c-4.271,0 -7.835,-0.493 -10.693,-1.478c-2.858,-0.986 -5.158,-2.48 -6.899,-4.484c-1.741,-2.004 -2.989,-4.517 -3.745,-7.539c-0.755,-3.023 -1.133,-6.538 -1.133,-10.545l0,-2.76c0,-3.876 0.345,-7.309 1.035,-10.298c0.69,-2.99 1.954,-5.503 3.794,-7.539c1.84,-2.037 4.32,-3.581 7.441,-4.632c3.12,-1.051 7.112,-1.577 11.974,-1.577c4.927,0 8.968,0.542 12.121,1.626c3.154,1.084 5.634,2.612 7.441,4.583c1.807,1.971 3.038,4.352 3.695,7.145c0.657,2.792 0.986,5.896 0.986,9.313l0,25.426c0,3.942 -0.443,7.325 -1.33,10.15c-0.887,2.825 -2.316,5.125 -4.287,6.899c-1.971,1.774 -4.501,3.071 -7.589,3.893c-3.088,0.821 -6.833,1.232 -11.235,1.232l-7.982,0c-1.446,0 -3.039,-0.017 -4.78,-0.05c-1.741,-0.033 -3.794,-0.082 -6.159,-0.148l2.069,-10.249c1.84,0.066 3.499,0.115 4.977,0.148c1.478,0.033 2.858,0.049 4.139,0.049l7.145,0c2.234,0 4.123,-0.18 5.667,-0.542c1.544,-0.361 2.808,-0.985 3.794,-1.872c0.986,-0.887 1.692,-2.119 2.119,-3.696c0.427,-1.577 0.64,-3.548 0.64,-5.913l0,-0.69Z" style="fill:#fff;fill-rule:nonzero;" fill="#ffffff"/><path d="M454.284,106.412l-12.812,0l0,-33.704c0,-3.285 0.46,-6.061 1.38,-8.328c0.92,-2.266 2.267,-4.09 4.041,-5.469c1.774,-1.38 3.942,-2.382 6.504,-3.006c2.562,-0.624 5.486,-0.936 8.771,-0.936c2.497,0 4.632,0 6.406,0c1.774,0 3.515,0.033 5.223,0.098l-2.07,10.644c-1.314,-0.066 -2.759,-0.115 -4.336,-0.148c-1.577,-0.033 -2.891,-0.049 -3.942,-0.049c-2.102,0 -3.745,0.197 -4.927,0.591c-1.183,0.394 -2.103,0.969 -2.76,1.725c-0.657,0.755 -1.067,1.708 -1.232,2.857c-0.164,1.15 -0.246,2.514 -0.246,4.09l0,31.635Z" style="fill:#fff;fill-rule:nonzero;" fill="#ffffff"/><path d="M501.884,53.589c4.402,0 8.147,0.394 11.235,1.183c3.088,0.788 5.617,2.118 7.588,3.991c1.971,1.872 3.4,4.385 4.287,7.539c0.887,3.154 1.33,7.096 1.33,11.826l0,5.322c0,4.73 -0.443,8.672 -1.33,11.826c-0.887,3.153 -2.316,5.667 -4.287,7.539c-1.971,1.872 -4.5,3.203 -7.588,3.991c-3.088,0.789 -6.833,1.183 -11.235,1.183c-4.468,0 -8.246,-0.394 -11.333,-1.183c-3.088,-0.788 -5.618,-2.119 -7.589,-3.991c-1.971,-1.872 -3.4,-4.386 -4.287,-7.539c-0.887,-3.154 -1.33,-7.096 -1.33,-11.826l0,-5.322c0,-4.73 0.443,-8.672 1.33,-11.826c0.887,-3.154 2.316,-5.667 4.287,-7.539c1.971,-1.873 4.501,-3.203 7.589,-3.991c3.087,-0.789 6.865,-1.183 11.333,-1.183Zm11.432,24.342c0,-3.022 -0.164,-5.47 -0.493,-7.342c-0.329,-1.873 -0.903,-3.302 -1.725,-4.287c-0.821,-0.986 -1.971,-1.643 -3.449,-1.971c-1.478,-0.329 -3.4,-0.493 -5.765,-0.493c-2.365,0 -4.303,0.164 -5.815,0.493c-1.511,0.328 -2.677,0.985 -3.498,1.971c-0.821,0.985 -1.396,2.414 -1.725,4.287c-0.328,1.872 -0.493,4.32 -0.493,7.342l0,5.814c0,3.023 0.165,5.454 0.493,7.293c0.329,1.84 0.904,3.252 1.725,4.238c0.821,0.985 1.987,1.642 3.498,1.971c1.512,0.328 3.45,0.493 5.815,0.493c2.365,0 4.287,-0.165 5.765,-0.493c1.478,-0.329 2.628,-0.986 3.449,-1.971c0.822,-0.986 1.396,-2.398 1.725,-4.238c0.329,-1.839 0.493,-4.27 0.493,-7.293l0,-5.814Z" style="fill:#fff;fill-rule:nonzero;" fill="#ffffff"/><path d="M652.174,97.148l0,-7.982c0,-1.183 -0.115,-2.185 -0.345,-3.006c-0.23,-0.821 -0.707,-1.495 -1.429,-2.02c-0.723,-0.526 -1.741,-0.904 -3.055,-1.134c-1.314,-0.23 -3.055,-0.345 -5.224,-0.345l-1.478,0c-3.745,0 -6.274,0.46 -7.588,1.38c-1.314,0.92 -1.971,2.595 -1.971,5.026l0,1.873c0,2.102 0.607,3.662 1.823,4.681c1.215,1.018 3.466,1.527 6.751,1.527l12.516,0Zm12.417,0c0,3.482 -0.788,5.897 -2.365,7.244c-1.577,1.347 -4.304,2.02 -8.18,2.02l-16.064,0c-7.03,0 -12.006,-1.314 -14.93,-3.942c-2.924,-2.628 -4.386,-6.406 -4.386,-11.333l0,-2.168c0,-5.454 1.61,-9.412 4.829,-11.876c3.22,-2.463 8.246,-3.695 15.079,-3.695c3.416,0 6.258,0.279 8.524,0.837c2.267,0.559 3.959,1.199 5.076,1.922l0,-1.774c0,-1.774 -0.181,-3.252 -0.542,-4.435c-0.362,-1.182 -0.97,-2.118 -1.824,-2.808c-0.854,-0.69 -2.02,-1.167 -3.498,-1.429c-1.478,-0.263 -3.334,-0.395 -5.568,-0.395c-1.249,0 -2.628,0 -4.139,0c-1.512,0 -3.039,0.017 -4.583,0.05c-1.544,0.033 -3.072,0.065 -4.583,0.098c-1.511,0.033 -2.89,0.05 -4.139,0.05l2.07,-10.348c1.839,-0.066 4.139,-0.115 6.898,-0.148c2.76,-0.033 5.782,-0.049 9.067,-0.049c8.015,0 13.896,1.412 17.641,4.237c3.744,2.825 5.617,7.26 5.617,13.305l0,24.637Z" style="fill:#fff;fill-rule:nonzero;" fill="#ffffff"/><path d="M703.617,106.412l-7.983,0c-4.139,0 -7.539,-0.296 -10.2,-0.887c-2.66,-0.591 -4.763,-1.626 -6.307,-3.104c-1.544,-1.478 -2.611,-3.466 -3.203,-5.963c-0.591,-2.496 -0.887,-5.617 -0.887,-9.362l0,-43.855l12.812,-2.069l0,13.994l18.429,0l-2.07,10.545l-16.359,0l0,20.695c0,1.971 0.115,3.581 0.345,4.829c0.23,1.249 0.657,2.218 1.281,2.908c0.624,0.689 1.511,1.149 2.661,1.379c1.15,0.23 2.611,0.345 4.385,0.345l9.166,0l-2.07,10.545Z" style="fill:#fff;fill-rule:nonzero;" fill="#ffffff"/><path d="M535.785,89.062l0,-17.734c0,-3.285 0.46,-6.061 1.38,-8.327c0.92,-2.267 2.283,-4.09 4.09,-5.47c1.807,-1.38 4.024,-2.382 6.652,-3.006c2.628,-0.624 5.65,-0.936 9.067,-0.936c3.547,0 6.685,0.493 9.411,1.478c2.727,0.986 4.846,2.398 6.357,4.238c1.511,-1.84 3.646,-3.252 6.406,-4.238c2.759,-0.985 5.945,-1.478 9.559,-1.478c3.351,0 6.34,0.312 8.968,0.936c2.628,0.624 4.845,1.626 6.652,3.006c1.807,1.38 3.17,3.203 4.09,5.47c0.92,2.266 1.38,5.042 1.38,8.327l0,35.084l-12.812,0l0,-33.31c0,-1.511 -0.082,-2.825 -0.246,-3.942c-0.164,-1.117 -0.542,-2.053 -1.133,-2.809c-0.592,-0.755 -1.495,-1.314 -2.711,-1.675c-1.215,-0.361 -2.841,-0.542 -4.878,-0.542c-1.905,0 -3.416,0.164 -4.533,0.493c-1.117,0.328 -2.004,0.821 -2.661,1.478c-0.657,0.657 -1.084,1.478 -1.281,2.464c-0.197,0.985 -0.296,2.135 -0.296,3.449l0,25.774l-12.811,0l0,-24.69c0,-1.511 -0.083,-2.825 -0.247,-3.942c-0.164,-1.117 -0.558,-2.053 -1.182,-2.809c-0.625,-0.755 -1.528,-1.314 -2.711,-1.675c-1.182,-0.361 -2.792,-0.542 -4.829,-0.542c-2.036,0 -3.646,0.181 -4.829,0.542c-1.182,0.361 -2.069,0.92 -2.66,1.675c-0.592,0.756 -0.969,1.692 -1.134,2.809c-0.164,1.117 -0.246,2.431 -0.246,3.942l0,15.96l-12.812,0Z" style="fill:#fff;fill-rule:nonzero;" fill="#ffffff"/><path d="M53.344,4.556l0,29.275c-15.93,9.222 -26.656,26.453 -26.656,46.17c0,29.423 23.888,53.311 53.312,53.311c29.424,0 53.312,-23.888 53.312,-53.311c0,-19.717 -10.726,-36.948 -26.656,-46.17l0,-29.275c31.065,10.989 53.343,40.636 53.343,75.445c0,44.152 -35.846,79.999 -79.999,79.999c-44.153,0 -80,-35.847 -80,-79.999c0,-34.809 22.28,-64.456 53.344,-75.445Z" style="fill:#fff;" fill="#ffffff"/><path d="M66.672,1.108c4.335,-0.728 8.787,-1.108 13.328,-1.108c4.541,0 8.993,0.38 13.328,1.108l0,27.263c-4.26,-1.098 -8.727,-1.682 -13.328,-1.682c-4.601,0 -9.068,0.584 -13.328,1.682l0,-27.263Z" style="fill:#fff;" fill="#ffffff"/><path d="M66.672,104.437l0,-62.141c4.17,-1.477 8.656,-2.279 13.328,-2.279c4.672,0 9.158,0.802 13.328,2.279l0,62.141c-4.17,1.476 -8.656,2.279 -13.328,2.279c-4.672,0 -9.158,-0.803 -13.328,-2.279Z" style="fill:#fff;" fill="#ffffff"/></svg>